<?xml version="1.0" encoding="UTF-8" standalone="no"?>
<svg
   xmlns:svg="http://www.w3.org/2000/svg"
   xmlns="http://www.w3.org/2000/svg"
   xmlns:xlink="http://www.w3.org/1999/xlink"
   xml:space="preserve"
   enable-background="new 0 329.2 1000 270.8"
   viewBox="0 329.2 1000 270.8"
   y="0px"
   x="0px"
   id="Ebene_1"
   version="1.1"><defs
     id="defs183"><defs
       id="defs69"><rect
         id="SVGID_3_"
         y="329.20001"
         width="996.70001"
         height="270.79999"
         x="0" /></defs><clipPath
       id="SVGID_4_"><use
         xlink:href="#SVGID_3_"
         overflow="visible"
         id="use73"
         style="overflow:visible"
         x="0"
         y="0"
         width="100%"
         height="100%" /></clipPath><defs
       id="defs55"><rect
         id="SVGID_1_"
         y="329.20001"
         width="996.70001"
         height="270.79999"
         x="0" /></defs><clipPath
       id="SVGID_2_"><use
         xlink:href="#SVGID_1_"
         overflow="visible"
         id="use59"
         style="overflow:visible"
         x="0"
         y="0"
         width="100%"
         height="100%" /></clipPath><defs
       id="defs101"><rect
         id="SVGID_7_"
         y="329.20001"
         width="996.70001"
         height="270.79999"
         x="0" /></defs><clipPath
       id="SVGID_8_"><use
         xlink:href="#SVGID_7_"
         overflow="visible"
         id="use105"
         style="overflow:visible"
         x="0"
         y="0"
         width="100%"
         height="100%" /></clipPath><defs
       id="defs87"><rect
         id="SVGID_5_"
         y="329.20001"
         width="996.70001"
         height="270.79999"
         x="0" /></defs><clipPath
       id="SVGID_6_"><use
         xlink:href="#SVGID_5_"
         overflow="visible"
         id="use91"
         style="overflow:visible"
         x="0"
         y="0"
         width="100%"
         height="100%" /></clipPath></defs><path
     d="m 161.5,453.8 c -2.5,12.3 -9.4,21.7 -17.5,31 -10.8,9.4 -24.4,9.4 -37.7,12.1 -6.7,0 -13.5,-1.2 -20.2,-5.4 C 72.5,480.6 74,464.6 72.5,449.6 c -1.2,-6.7 2.7,-12.1 9.4,-16.2 10.8,-5.4 20.2,-10.8 31,-14.8 16.2,-6.7 39.2,1.2 49.8,16.2 4.2,5.4 0,12.1 -1.2,19"
     id="path77"
     style="fill:#2289ca" /><path
     clip-path="url(#SVGID_6_)"
     d="m 255.8,482.1 c -9,28.5 -33.7,44.6 -59.4,55.2 -28.3,12.1 -59.4,20.2 -89,12.1 -4,-1.2 -8.1,-2.7 -9.4,-6.7 -2.7,-8.1 -1.2,-21.7 8.1,-21.7 41.9,-4 93.1,-20.2 102.5,-66 5.4,-24.2 -10.8,-45.8 -31,-55.2 -24.2,-10.8 -51.2,-10.8 -76.9,-2.7 26.9,-21.7 64.6,-24.4 97.1,-10.8 37.8,14.8 71.6,52.7 58,95.8"
     id="path93"
     style="fill:#e3000b" /><path
     clip-path="url(#SVGID_8_)"
     d="M 254.4,566.9 C 201.7,598.6 137.1,606.1 75,592.5 50.8,585.8 27.7,575 12.9,553.3 -3.3,527.7 -1.9,498.1 3.5,471 c 0,25.6 6.7,49.8 20.2,72.7 14.8,21.7 36.5,32.3 60.6,35 57.9,4 111.9,-21.7 161.9,-47.3 12.1,-6.7 25.6,6.7 21.7,19 -2.7,7.1 -6.6,12.5 -13.5,16.5"
     id="path107"
     style="fill:#ffde0c" /><path
     d="m 991.7,561.7 0,-13.8 c 0,-3.5 -1,-5.6 -4.2,-5.6 -4,0 -6.7,4 -6.7,9.2 l 0,10 -2.7,0 0,-21 2.7,0 c 0,1.5 -0.2,3.5 -0.4,4.8 l 0,0 c 1.2,-3.1 4,-5.2 7.7,-5.2 4.8,0 6.2,2.9 6.2,6.7 l 0,14.6 -2.7,0 0,0.3 0.1,0 z m -28.2,-19.4 c -3.1,0 -5.4,2.3 -5.8,5.8 l 11.3,0 c 0.2,-3.5 -1.9,-5.8 -5.5,-5.8 l 0,0 z m 8.4,7.7 -14.2,0 c -0.2,6.9 2.3,9.6 7.3,9.6 2.3,0 4.6,-0.6 6,-1.5 l 0.2,2.3 c -1.9,0.8 -4.2,1.2 -6.9,1.2 -6.2,0 -9.6,-3.3 -9.6,-10.8 0,-6.2 3.3,-10.8 9.2,-10.8 5.6,0 8.1,4 8.1,8.5 -0.1,0.5 -0.1,0.9 -0.1,1.5 l 0,0 z m -25.7,11.7 0,-13.8 c 0,-3.5 -1,-5.6 -4.2,-5.6 -4,0 -6.7,4 -6.7,9.2 l 0,10 -2.7,0 0,-21 2.7,0 c 0,1.5 -0.2,3.5 -0.4,4.8 l 0,0 c 1.3,-3.1 4,-5.2 7.7,-5.2 4.8,0 6.2,2.9 6.2,6.7 l 0,14.6 -2.7,0 0,0.3 0.1,0 z m -28.9,-19.4 c -3.5,0 -6.7,2.7 -6.7,8.5 0,5.6 2.5,8.8 6.9,8.8 3.5,0 6.7,-2.7 6.7,-8.8 -0.2,-5.2 -2.5,-8.5 -6.9,-8.5 l 0,0 z m -0.4,19.6 c -5.6,0 -9.2,-3.3 -9.2,-10.8 0,-5.8 3.5,-10.8 9.8,-10.8 5,0 9.2,2.7 9.2,10.6 0,6 -3.6,11 -9.8,11 l 0,0 z m -17.5,-0.2 0,-21 2.7,0 0,21 -2.7,0 0,0 z m 1.2,-25.2 c -1,0 -1.9,-0.8 -1.9,-1.9 0,-1 0.8,-1.9 1.9,-1.9 1,0 1.9,0.8 1.9,1.9 0.2,1 -0.6,1.9 -1.9,1.9 l 0,0 z M 890,561.9 c -4.2,0 -5.2,-1.9 -5.2,-6 l 0,-13.1 -4.8,0 0,-2.2 4.8,0 0,-7 2.7,-0.6 0,7.9 6.5,0 0,2.1 -6.5,0 0,11.9 c 0,4 0.6,5 3.3,5 1,0 2.3,-0.2 3.1,-0.4 l 0,2.3 c -1.2,-0.1 -2.7,0.1 -3.9,0.1 l 0,0 z m -16,-10.2 c -8.3,0 -10.2,2.7 -10.2,4.8 0,2.1 1.5,3.3 3.5,3.3 4,0 6.7,-4 6.7,-7.9 l 0,-0.2 0,0 z m 0,10 c 0,-1.7 0,-3.3 0.2,-4.6 l 0,0 c -1,2.7 -3.8,5 -7.5,5 -3.3,0 -5.6,-1.7 -5.6,-5 0,-4.4 4.6,-7.3 12.9,-7.3 l 0,-1.9 c 0,-3.3 -1.2,-5.4 -5,-5.4 -2.1,0 -4.6,0.6 -6.5,1.9 l -0.2,-2.5 c 2.1,-0.8 4.4,-1.7 7.3,-1.7 5.6,0 7.1,2.9 7.1,6.7 l 0,8.1 c 0,2.1 0,4.6 0,6.5 l -2.7,0 0,0.2 z m -26.1,0.2 c -1.7,0 -3.1,-0.2 -4.6,-0.4 l 0,-2.5 c 1.5,0.4 3.1,0.6 4.8,0.6 3.3,0 5.6,-1.5 5.6,-3.8 0,-5.4 -10.6,-2.1 -10.6,-9.6 0,-3.3 2.9,-6 8.1,-6 1.2,0 2.9,0.2 4.2,0.4 l -0.2,2.3 c -1.5,-0.4 -2.9,-0.6 -4.4,-0.6 -3.3,0 -5,1.5 -5,3.5 0,5.4 10.6,2.3 10.6,9.4 0.1,3.8 -3.1,6.7 -8.5,6.7 l 0,0 z m -13.7,-0.2 0,-21 2.7,0 0,21 -2.7,0 0,0 z m 1.4,-25.2 c -1,0 -1.9,-0.8 -1.9,-1.9 0,-1 0.8,-1.9 1.9,-1.9 1,0 1.9,0.8 1.9,1.9 0,1 -0.8,1.9 -1.9,1.9 l 0,0 z m -11.2,25.2 0,-13.8 c 0,-3.5 -1,-5.6 -4.2,-5.6 -4,0 -6.7,4 -6.7,9.2 l 0,10 -2.7,0 0,-21 2.7,0 c 0,1.5 -0.2,3.5 -0.4,4.8 l 0,0 c 1.2,-3.1 4,-5.2 7.7,-5.2 4.8,0 6.2,2.9 6.2,6.7 l 0,14.6 -2.7,0 0,0.3 0.1,0 z m -24.4,-10 c -8.3,0 -10.2,2.7 -10.2,4.8 0,2.1 1.5,3.3 3.5,3.3 4,0 6.7,-4 6.7,-7.9 l 0,-0.2 0,0 z m 0,10 c 0,-1.7 0,-3.3 0.2,-4.6 l 0,0 c -1,2.7 -3.8,5 -7.5,5 -3.3,0 -5.6,-1.7 -5.6,-5 0,-4.4 4.6,-7.3 12.9,-7.3 l 0,-1.9 c 0,-3.3 -1.2,-5.4 -5,-5.4 -2.1,0 -4.6,0.6 -6.5,1.9 l -0.2,-2.5 c 2.1,-0.8 4.4,-1.7 7.3,-1.7 5.6,0 7.1,2.9 7.1,6.7 l 0,8.1 c 0,2.1 0,4.6 0,6.5 l -2.7,0 0,0.2 z m -26.9,-19.4 c -4,0 -6.2,2.5 -6.2,5.6 0,3.5 2.3,5.6 6,5.6 3.7,0 6,-2.1 6,-5.6 0.1,-3.5 -2.2,-5.6 -5.8,-5.6 l 0,0 z m 2.1,19.4 -5.8,0 c -1.9,1 -3.3,2.7 -3.3,4.6 0,2.9 2.9,4.4 6.5,4.4 4.8,0 7.7,-2.1 7.7,-5 -0.1,-2.8 -1.8,-4 -5.1,-4 l 0,0 z m -3.1,11 c -5.2,0 -8.8,-2.3 -8.8,-6.2 0,-2.7 1.7,-4.6 3.8,-5.6 -1.2,-0.6 -2.1,-1.7 -2.1,-3.1 0,-1.4 0.8,-2.7 2.3,-3.3 -2.1,-1.2 -3.1,-3.3 -3.1,-6.2 0,-4.4 3.3,-8.1 9,-8.1 1,0 1.9,0.2 3.1,0.4 l 7.1,0 0,2.1 -4,0 c 1.2,1 2.3,2.9 2.3,5 0,4.4 -3.1,7.9 -9.2,7.9 -1,0 -2.3,-0.2 -3.1,-0.4 -1,0.4 -1.7,1.2 -1.7,2.1 0,1.2 1.3,1.9 4,1.9 l 4.4,0 c 4.6,0 7.1,2.3 7.1,5.8 -0.3,4.4 -4.9,7.7 -11.1,7.7 l 0,0 z m -11.1,-30 c -4.8,-0.8 -7.1,3.1 -7.1,10.4 l 0,8.3 -2.7,0 0,-21 2.7,0 c 0,1.5 -0.2,3.5 -0.6,5.4 l 0,0 c 0.8,-3.1 2.9,-6.5 7.7,-5.8 l 0,2.7 0,0 z m -25,-0.4 c -3.5,0 -6.7,2.7 -6.7,8.5 0,5.6 2.5,8.8 6.9,8.8 3.5,0 6.7,-2.7 6.7,-8.8 -0.2,-5.2 -2.5,-8.5 -6.9,-8.5 l 0,0 z m -0.4,19.6 c -5.6,0 -9.2,-3.3 -9.2,-10.8 0,-5.8 3.5,-10.8 9.8,-10.8 5,0 9.2,2.7 9.2,10.6 0.2,6 -3.5,11 -9.8,11 l 0,0 z m -21.8,0 c -1.7,0 -3.1,-0.2 -4.6,-0.4 l 0,-2.5 c 1.2,0.4 3.1,0.6 4.8,0.6 3.3,0 5.6,-1.5 5.6,-3.8 0,-5.4 -10.6,-2.1 -10.6,-9.6 0,-3.3 2.9,-6 8.1,-6 1.2,0 2.9,0.2 4.2,0.4 l -0.2,2.3 c -1.5,-0.4 -2.9,-0.6 -4.4,-0.6 -3.3,0 -5,1.5 -5,3.5 0,5.4 10.6,2.3 10.6,9.4 0.2,3.8 -3.1,6.7 -8.5,6.7 l 0,0 z m -4.6,-28.8 c -1,-0.4 -2.3,-0.4 -3.3,-0.4 -3.5,0 -5,2.1 -5,6.2 l 0,1.5 6.5,0 0,2.1 -6.5,0 0,19 -2.7,0 0,-19 -4.8,0 0,-2.1 4.8,0 0,-1.5 c 0,-5.8 2.9,-8.5 7.9,-8.5 1.2,0 2.3,0.2 3.5,0.4 l -0.4,2.3 0,0 z m -20,-2.5 0,31.1 -2.7,0 0,-31.1 z m -13.2,31.1 0,-21 2.7,0 0,21 -2.7,0 0,0 z m 1.3,-25.2 c -1,0 -1.9,-0.8 -1.9,-1.9 0,-1 0.8,-1.9 1.9,-1.9 1.1,0 1.9,0.8 1.9,1.9 0,1 -0.9,1.9 -1.9,1.9 l 0,0 z m -28.3,11.4 0,13.8 -2.7,0 0,-28.6 2.7,0 0,12.5 16.4,0 0,-12.5 2.7,0 0,28.6 -2.7,0 0,-13.8 z m -16.7,-5.2 c -4.8,-0.8 -7.1,3.1 -7.1,10.4 l 0,8.3 -2.7,0 0,-21 2.7,0 c 0,1.5 -0.2,3.5 -0.6,5.4 l 0,0 c 0.8,-3.1 2.9,-6.5 7.7,-5.8 l 0,2.7 0,0 z m -24,-0.4 c -3.1,0 -5.4,2.3 -5.8,5.8 l 11.2,0 c 0.1,-3.5 -2,-5.8 -5.4,-5.8 l 0,0 z m 8.2,7.7 -14.2,0 c -0.2,6.9 2.3,9.6 7.3,9.6 2.3,0 4.6,-0.6 6,-1.5 l 0.2,2.3 c -1.9,0.8 -4.2,1.2 -6.9,1.2 -6.2,0 -9.6,-3.3 -9.6,-10.8 0,-6.2 3.3,-10.8 9.2,-10.8 5.9,0 8.1,4 8.1,8.5 0.1,0.5 0.1,0.9 -0.1,1.5 l 0,0 z m -25.5,11.7 0,-13.8 c 0,-3.5 -1,-5.6 -4.4,-5.6 -4,0 -6.7,4 -6.7,9.2 l 0,10 -2.7,0 0,-30.9 2.7,0 0,10.6 c 0,1.5 0,3.1 -0.4,4.2 l 0,0 c 1.2,-3.3 4,-5.4 7.7,-5.4 4.8,0 6.2,2.9 6.2,6.7 l 0,14.6 -2.4,0 0,0.4 z m -25.4,0.2 c -4.4,0 -9,-1.9 -9,-10 0,-6.9 3.5,-11.5 10.2,-11.5 1.7,0 3.5,0.2 5,0.6 l -0.2,2.3 c -1.5,-0.6 -3.1,-1 -5,-1 -4.8,0 -7.1,3.5 -7.1,9 0,4.6 1.2,8.3 6.7,8.3 2.1,0 4.2,-0.4 5.6,-1.2 l 0.2,2.3 c -1.4,0.4 -3.7,1.2 -6.4,1.2 l 0,0 z m -21.8,0 c -1.7,0 -3.1,-0.2 -4.6,-0.4 l 0,-2.5 c 1.3,0.4 3.1,0.6 4.8,0.6 3.3,0 5.6,-1.5 5.6,-3.8 0,-5.4 -10.6,-2.1 -10.6,-9.6 0,-3.3 2.9,-6 8.1,-6 1.2,0 2.9,0.2 4.2,0.4 l -0.2,2.3 c -1.5,-0.4 -2.9,-0.6 -4.4,-0.6 -3.3,0 -5,1.5 -5,3.5 0,5.4 10.6,2.3 10.6,9.4 0.2,3.8 -3.1,6.7 -8.5,6.7 l 0,0 z m -12.3,0 c -4.2,0 -5.2,-1.9 -5.2,-6 l 0,-13.1 -4.8,0 0,-2.2 4.8,0 0,-7 2.7,-0.6 0,7.9 6.5,0 0,2.1 -6.5,0 0,11.9 c 0,4 0.6,5 3.3,5 1,0 2.3,-0.2 3.1,-0.4 l 0,2.3 c -1.2,-0.1 -2.7,0.1 -3.9,0.1 l 0,0 z m -16.7,-0.2 c 0,-1.5 0.2,-3.5 0.4,-4.8 l 0,0 c -1.3,3.1 -4,5.2 -7.7,5.2 -4.8,0 -6.2,-2.9 -6.2,-6.7 l 0,-14.6 2.7,0 0,13.8 c 0,3.5 0.8,5.6 4.2,5.6 4,0 6.7,-4 6.7,-9.2 l 0,-10 2.7,0 0,21 -2.7,0 0,-0.3 -0.1,0 z m -27.9,-19.4 c -3.1,0 -5.4,2.3 -5.8,5.8 l 11.2,0 c 0,-3.5 -2.1,-5.8 -5.4,-5.8 l 0,0 z m 8.1,7.7 -14.2,0 c -0.2,6.9 2.3,9.6 7.3,9.6 2.3,0 4.6,-0.6 6,-1.5 l 0.2,2.3 c -1.9,0.8 -4.2,1.2 -6.9,1.2 -6.2,0 -9.6,-3.3 -9.6,-10.8 0,-6.2 3.3,-10.8 9.2,-10.8 5.6,0 8.1,4 8.1,8.5 -0.1,0.5 -0.1,0.9 -0.1,1.5 l 0,0 z m -25.6,-7.1 c -1.5,-0.4 -2.9,-0.6 -4.4,-0.6 -4.6,0 -7.7,2.7 -7.7,9.4 0,5 1.7,7.9 5.4,7.9 4.6,0 6.7,-5.2 6.7,-9 l 0,-7.7 0,0 z m 0,18.8 c 0,-1.5 0.2,-3.5 0.4,-4.8 l 0,0 c -1,3.1 -4,5.2 -7.3,5.2 -5.2,0 -7.7,-3.8 -7.7,-9.8 0,-7.7 4.2,-11.7 10.6,-11.7 1.3,0 2.7,0 4.2,0.2 l 0,-9.8 2.7,0 0,30.8 -2.9,0 0,-0.1 0,0 z m -36.7,0.2 c -1.7,0 -3.1,-0.2 -4.6,-0.4 l 0,-2.5 c 1.5,0.4 3.1,0.6 4.8,0.6 3.3,0 5.6,-1.5 5.6,-3.8 0,-5.4 -10.6,-2.1 -10.6,-9.6 0,-3.3 2.9,-6 8.1,-6 1.2,0 2.9,0.2 4.2,0.4 l -0.2,2.3 c -1.5,-0.4 -2.9,-0.6 -4.4,-0.6 -3.3,0 -5,1.5 -5,3.5 0,5.4 10.6,2.3 10.6,9.4 0.3,3.8 -3.1,6.7 -8.5,6.7 l 0,0 z m -13.5,-0.2 0,-21 2.7,0 0,21 -2.7,0 0,0 z m 1.2,-25.2 c -1,0 -1.9,-0.8 -1.9,-1.9 0,-1 0.8,-1.9 1.9,-1.9 1.1,0 1.9,0.8 1.9,1.9 0,1 -0.8,1.9 -1.9,1.9 l 0,0 z m -11.9,25.2 0,-13.8 c 0,-3.5 -1,-5.6 -4.4,-5.6 -4,0 -6.7,4 -6.7,9.2 l 0,10 -2.7,0 0,-21 2.7,0 c 0,1.5 -0.2,3.5 -0.4,4.8 l 0,0 c 1.2,-3.1 4,-5.2 7.7,-5.2 4.8,0 6.2,2.9 6.2,6.7 l 0,14.6 -2.5,0 0.1,0.3 0,0 z m -24.3,-18.8 c -1.5,-0.4 -2.9,-0.6 -4.4,-0.6 -4.6,0 -7.7,2.7 -7.7,9.4 0,5 1.7,7.9 5.4,7.9 4.6,0 6.7,-5.2 6.7,-9 l 0,-7.7 0,0 z m 0,18.8 c 0,-1.5 0.2,-3.5 0.4,-4.8 l 0,0 c -1,3.1 -4,5.2 -7.3,5.2 -5.2,0 -7.7,-3.8 -7.7,-9.8 0,-7.7 4.2,-11.7 10.6,-11.7 1.3,0 2.7,0 4.2,0.2 l 0,-9.8 2.7,0 0,30.8 -2.9,0 0,-0.1 0,0 z m -23.2,0 0,-13.8 c 0,-3.5 -1,-5.6 -4.2,-5.6 -4,0 -6.7,4 -6.7,9.2 l 0,10 -2.7,0 0,-21 2.7,0 c 0,1.5 -0.2,3.5 -0.4,4.8 l 0,0 c 1.2,-3.1 4,-5.2 7.7,-5.2 4.8,0 6.2,2.9 6.2,6.7 l 0,14.6 -2.6,0 0,0.3 z m -26,-26.1 c -1,0 -1.9,-0.8 -1.9,-1.9 0,-1.1 0.8,-1.9 1.9,-1.9 1,0 1.9,0.8 1.9,1.9 -0.2,1.1 -1.1,1.9 -1.9,1.9 l 0,0 z m -7.9,0 c -1,0 -1.9,-0.8 -1.9,-1.9 0,-1.1 0.8,-1.9 1.9,-1.9 1,0 1.9,0.8 1.9,1.9 0,1.1 -0.9,1.9 -1.9,1.9 l 0,0 z m 9.6,26.1 c 0,-1.5 0.2,-3.5 0.4,-4.8 l 0,0 c -1.2,3.1 -4,5.2 -7.7,5.2 -4.8,0 -6.2,-2.9 -6.2,-6.7 l 0,-14.6 2.7,0 0,13.8 c 0,3.5 0.8,5.6 4.2,5.6 4,0 6.7,-4 6.7,-9.2 l 0,-10 2.7,0 0,21 -2.7,0 0,-0.3 -0.1,0 z M 305,547.9 c -0.6,0 -2.1,0 -2.9,0 l 0,11.5 c 0.8,0.2 2.1,0.2 4.2,0.2 5.4,0 7.7,-2.7 7.7,-6.2 0,-4.4 -4,-5.5 -9,-5.5 l 0,0 z m 1.5,-12.9 c -1.5,0 -3.1,0 -4.4,0 l 0,10.6 c 0.8,0 1.7,0 2.9,0 5.4,0 8.1,-2.1 8.1,-5.6 0,-2.7 -1.2,-5 -6.6,-5 l 0,0 z m -0.5,26.7 c -1.7,0 -4.4,0 -6.5,-0.2 l 0,-28.3 c 1.9,0 4.2,0 7.5,0 6.2,0 9,2.7 9,6.7 0,3.1 -2.3,5.8 -5.6,6.9 l 0,0 c 4.6,0.6 6.2,3.5 6.2,6.7 0.1,2.6 -1.6,8.2 -10.6,8.2 l 0,0 z M 721.7,600 M 85.8,382.3 c -36.5,24 -63.3,66 -45.8,107.9 9.4,20.2 26.9,36.5 48.5,44.6 C 48.1,540.2 17,502.5 13.1,466 c -4,-39.2 8.1,-78.1 37.7,-105.2 28.3,-25.8 66,-34 102.5,-31.3 21.7,2.7 41.9,6.9 62.1,16.2 5.4,2.7 13.5,6.7 10.8,13.5 -4,9.4 -17.5,8.1 -26.9,8.1 -37.8,0.2 -78.3,-7.9 -113.5,15 m 901.3,116.9 c -10.2,0 -13.3,-3.8 -13.3,-14.6 l 0,-23.3 -7.9,0 0,-9.2 7.9,0 0,-14.2 11.9,-3.1 0,17.5 11.2,0 0,9.2 -11.5,0 0,20.2 c 0,6 1.5,7.7 5.4,7.7 1.9,0 4.2,-0.2 5.8,-0.8 l 0,9.4 c -2.8,0.8 -6.4,1.2 -9.5,1.2 M 968.5,440 c -1.9,-0.6 -4,-0.8 -5.8,-0.8 -5.2,0 -7.5,2.7 -7.5,8.8 l 0,4 10.8,0 0,9.2 -10.8,0 0,37.1 -11.9,0 0,-36.9 -8.1,0 0,-9.2 8.1,0 0,-3.8 c 0,-12.5 5.8,-18.8 18.3,-18.8 2.5,0 5.2,0.2 7.5,0.8 l -0.6,9.6 0,0 z m -40.4,58.1 -11.9,0 0,-67.9 11.9,0 z m -36.6,-46.2 11.9,0 0,46.3 -11.9,0 0,-46.3 0,0 z m 5.8,-5.8 c -4.2,0 -7.3,-3.3 -7.3,-7.3 0,-4 3.3,-7.1 7.3,-7.1 4.2,0 7.5,3.1 7.5,7.1 0,3.9 -3.3,7.3 -7.5,7.3 m -57.7,25 0,27 -12.1,0 0,-62.7 12.1,0 0,25 26.6,0 0,-25 12.1,0 0,62.7 -12.1,0 0,-27 z m -57.1,-9.8 c -2.1,-0.4 -4.2,-0.8 -6.2,-0.8 -6.9,0 -11.7,4.4 -11.7,15.6 0,8.8 2.5,13.1 7.9,13.1 6.2,0 10,-7.3 10,-15.2 l 0,-12.7 0,0 z m 0.6,36.8 c 0,-2.3 0.2,-5.2 0.6,-7.7 l -0.2,0 c -2.5,5.2 -7.5,8.7 -14.6,8.7 -11.2,0 -16.9,-8.5 -16.9,-21.7 0,-15.6 9.2,-26.5 24.4,-26.5 1.9,0 3.7,0 5.8,0.4 l 0,-21.2 11.9,0 0,67.9 -11,0 0,0.1 z m -52.5,0 0,-29.5 c 0,-4.8 -1.2,-7.7 -5.6,-7.7 -6,0 -10.8,6.9 -10.8,15 l 0,22.3 -12.1,0 0,-46.2 11.2,0 c 0,2.1 -0.2,5.8 -0.6,8.1 l 0,0 c 2.7,-5.4 8.1,-9.4 15.6,-9.4 10.4,0 13.8,6.7 13.8,14.8 l 0,32.5 -11.5,0 0,0.1 0,0 z m -53.3,-20.4 c -12.5,0 -15.4,3.5 -15.4,7.3 0,2.9 2.1,5 5.4,5 5.8,0 9.8,-5.6 9.8,-11.2 l 0,-1 0.2,-0.1 0,0 z m 0.8,20.4 c 0,-2.7 0,-5.4 0.4,-7.9 l 0,0 c -2.3,5.2 -7.9,8.8 -14.8,8.8 -8.3,0 -13.1,-4.8 -13.1,-12.3 0,-11 11,-16.9 26.7,-16.9 l 0,-2.5 c 0,-4.8 -2.3,-7.3 -9,-7.3 -4.2,0 -9.8,1.5 -13.8,3.5 l -1,-10 c 4.6,-1.7 10.6,-2.9 16.5,-2.9 14.8,0 19.2,6 19.2,16 l 0,19.2 c 0,3.8 0,8.1 0.2,11.9 l -11.3,0 0,0.4 0,0 z m -37.5,0 -12.1,0 0,-67.9 12.1,0 z m -36.6,0 0,-29.5 c 0,-4.8 -1.2,-7.7 -5.6,-7.7 -6,0 -10.8,6.9 -10.8,15 l 0,22.3 -11.9,0 0,-67.9 11.9,0 0,19.8 c 0,2.7 -0.2,6.7 -0.8,9.4 l 0.2,0 c 2.7,-5.2 7.9,-8.8 15.2,-8.8 10.4,0 13.8,6.7 13.8,14.8 l 0,32.5 -12,0 0,0.1 0,0 z m -50.5,0.9 c -12.9,0 -20.8,-6.7 -20.8,-22.5 0,-14.4 7.5,-25.4 24,-25.4 3.1,0 6.5,0.4 9.6,1.2 l -1.2,10.4 c -2.5,-0.8 -5.4,-1.7 -8.3,-1.7 -7.5,0 -11.2,5.6 -11.2,14.4 0,7.9 3.1,13.3 11,13.3 3.1,0 6.7,-0.6 9.2,-1.9 l 0.8,10.2 c -3.5,1.1 -8.1,2 -13.1,2 m -48.3,0.2 c -3.3,0 -6.7,-0.4 -9.6,-0.8 l 0.2,-9.8 c 2.9,0.8 6.5,1.5 10,1.5 4.6,0 7.5,-1.9 7.5,-5 0,-8.1 -18.8,-3.5 -18.8,-19.2 0,-8.1 6.7,-14.8 19.6,-14.8 2.7,0 5.6,0.4 8.5,0.8 l -0.4,9.4 c -2.7,-0.8 -5.6,-1.2 -8.5,-1.2 -4.6,0 -6.9,1.9 -6.9,4.8 0,7.5 19,4.2 19,19.2 0,8.8 -8.1,15.1 -20.6,15.1 m -27.5,0 c -10.2,0 -13.3,-3.8 -13.3,-14.6 l 0,-23.3 -7.9,0 0,-9.2 7.9,0 0,-14.2 11.9,-3.1 0,17.5 11.2,0 0,9.2 -11.2,0 0,20.2 c 0,6 1.5,7.7 5.4,7.7 1.9,0 4.2,-0.2 5.8,-0.8 l 0,9.4 c -2.9,0.8 -6.5,1.2 -9.8,1.2 m -39.4,-1.1 c 0,-2.1 0,-5.8 0.6,-8.1 l 0,0 c -2.7,5.4 -8.1,9.4 -15.6,9.4 -10.4,0 -13.8,-6.7 -13.8,-14.8 l 0,-32.7 11.9,0 0,29.6 c 0,4.8 1.3,7.7 5.8,7.7 6,0 10.6,-6.9 10.6,-15 l 0,-22.3 11.9,0 0,46.3 -11.4,-0.1 0,0 z m -58.9,-38.5 c -5,0 -8.3,3.5 -9,9.2 l 17.1,0 c 0.2,-5.7 -3.1,-9.2 -8.1,-9.2 m 19.6,17.5 -28.8,0 c 0,8.8 4.2,12.9 12.7,12.9 4.6,0 9.6,-1 13.5,-2.9 l 1,9.2 c -5,1.9 -10.8,2.9 -16.7,2.9 -14.8,0 -22.9,-7.3 -22.9,-23.5 0,-14.2 7.9,-24.6 21.7,-24.6 13.5,0 19.4,9.2 19.4,20.6 0.3,1.4 0.3,3.3 0.1,5.4 m -80.2,-31.9 c -2.7,0 -5.4,0 -7.3,0.2 l 0,42.3 c 1.7,0.2 4.2,0.4 6.7,0.4 11.9,0 20.4,-6.7 20.4,-21.7 -0.1,-13.3 -5.5,-21.2 -19.8,-21.2 m -1.9,53.4 c -6.5,0 -12.3,-0.2 -17.5,-0.4 l 0,-62.7 c 5,-0.2 12.5,-0.4 20.2,-0.4 19.4,0 31.9,8.8 31.9,30.6 0,21.6 -14.2,32.9 -34.6,32.9 m 228.7,-86.5 0,-29.6 c 0,-4.8 -1.2,-7.7 -5.6,-7.7 -6,0 -10.8,6.9 -10.8,15 l 0,22.3 -11.9,0 0,-46.2 11.2,0 c 0,2.1 -0.2,5.8 -0.6,8.1 l 0,0 c 2.7,-5.4 8.1,-9.4 15.6,-9.4 10.4,0 13.8,6.7 13.8,14.8 l 0,32.5 -11.7,0 0,0.2 z m -60.2,-37.3 c -5.2,0 -10.4,4.2 -10.4,13.5 0,9.6 3.5,14.4 10.4,14.4 5.8,0 10.4,-4.8 10.4,-14.2 -0.4,-8.7 -3.5,-13.7 -10.4,-13.7 m -1.2,38.1 c -13.1,0 -21.7,-6.9 -21.7,-23.3 0,-14.4 9.6,-24.8 23.5,-24.8 13.1,0 21.7,7.3 21.7,23.1 0,14.6 -9.8,25 -23.5,25 m -43.2,-47.1 11.9,0 0,46.2 -11.9,0 0,-46.2 0,0 z m 6.1,-6 c -4.2,0 -7.3,-3.3 -7.3,-7.3 0,-4 3.3,-7.1 7.3,-7.1 4.2,0 7.5,3.1 7.5,7.1 0,4 -3.3,7.3 -7.5,7.3 m -25.2,53.1 c -10.2,0 -13.3,-3.8 -13.3,-14.6 l 0,-23.3 -7.9,0 0,-9.2 7.9,0 0,-14.2 11.9,-3.1 0,17.5 11.2,0 0,9 -11.2,0 0,20.2 c 0,6 1.5,7.7 5.4,7.7 1.9,0 4.2,-0.2 5.8,-0.8 l 0,9.6 c -3.2,0.8 -6.7,1.2 -9.8,1.2 m -52.5,-0.8 -11.9,0 0,-68.1 11.9,0 0,41 13.5,-19.2 14.6,0 -16.2,21.1 17.5,25.2 -15,0 -14.4,-22.9 z m -45.2,-39 c -1.2,-3.5 -2.1,-6.5 -2.9,-10 l 0,0 c -0.8,3.3 -1.7,6.9 -2.9,10.4 l -5.6,16 17.5,0 -6.1,-16.4 0,0 z m 13.5,39 -4.4,-12.9 -23.7,0 -4.4,12.9 -12.3,0 21.9,-62.7 13.8,0 22.5,62.7 -13.4,0 0,0 z"
     style="fill:#000e17"
     id="path179" /></svg>