<?xml version="1.0" encoding="UTF-8" standalone="no"?>
<!DOCTYPE svg PUBLIC "-//W3C//DTD SVG 1.1//EN" "http://www.w3.org/Graphics/SVG/1.1/DTD/svg11.dtd">
<svg width="100%" height="100%" viewBox="0 0 945 271" version="1.1" xmlns="http://www.w3.org/2000/svg" xmlns:xlink="http://www.w3.org/1999/xlink" xml:space="preserve" xmlns:serif="http://www.serif.com/" style="fill-rule:evenodd;clip-rule:evenodd;stroke-linejoin:round;stroke-miterlimit:2;">
    <g transform="matrix(1,0,0,1,-4700.79,-118.114)">
        <g transform="matrix(4.16667,0,0,4.16667,0,0)">
            <g transform="matrix(1,0,0,1,1200.82,64.233)">
                <path d="M0,-8.155C-2.974,-8.155 -5.252,-7.17 -6.792,-5.222L-6.792,-19.669C-6.792,-19.932 -7.005,-20.145 -7.268,-20.145L-8.613,-20.145C-8.876,-20.145 -9.089,-19.932 -9.089,-19.669L-9.089,11.514C-9.089,11.777 -8.876,11.99 -8.613,11.99L-7.268,11.99C-7.005,11.99 -6.792,11.777 -6.792,11.514L-6.792,0.607C-6.792,-1.193 -6.124,-2.715 -4.751,-4.048C-3.375,-5.386 -1.821,-6.037 0,-6.037C1.816,-6.037 3.326,-5.396 4.618,-4.078C5.912,-2.756 6.541,-1.224 6.541,0.607L6.541,11.514C6.541,11.777 6.754,11.99 7.017,11.99L8.361,11.99C8.625,11.99 8.837,11.777 8.837,11.514L8.837,0.607C8.837,-1.817 7.977,-3.905 6.281,-5.6C4.585,-7.296 2.471,-8.155 0,-8.155" style="fill:rgb(64,63,65);fill-rule:nonzero;"/>
            </g>
        </g>
        <g transform="matrix(4.16667,0,0,4.16667,0,0)">
            <g transform="matrix(1,0,0,1,1229.94,76.6745)">
                <path d="M0,-20.271L-1.345,-20.271C-1.608,-20.271 -1.821,-20.058 -1.821,-19.795L-1.821,-8.815C-1.821,-7.005 -2.494,-5.47 -3.881,-4.127C-5.273,-2.779 -6.834,-2.124 -8.655,-2.124C-10.468,-2.124 -11.97,-2.774 -13.247,-4.113C-14.53,-5.459 -15.153,-6.998 -15.153,-8.815L-15.153,-19.795C-15.153,-20.058 -15.366,-20.271 -15.629,-20.271L-16.973,-20.271C-17.236,-20.271 -17.449,-20.058 -17.449,-19.795L-17.449,-8.815C-17.449,-6.377 -16.597,-4.275 -14.918,-2.57C-13.237,-0.865 -11.129,0 -8.655,0C-5.671,0 -3.378,-1.034 -1.821,-3.08L-1.821,-0.936C-1.821,-0.673 -1.608,-0.46 -1.345,-0.46L0,-0.46C0.263,-0.46 0.476,-0.673 0.476,-0.936L0.476,-19.795C0.476,-20.058 0.263,-20.271 0,-20.271" style="fill:rgb(64,63,65);fill-rule:nonzero;"/>
            </g>
        </g>
        <g transform="matrix(4.16667,0,0,4.16667,0,0)">
            <g transform="matrix(1,0,0,1,1253.87,76.2225)">
                <path d="M0,-20.273C-1.785,-20.273 -3.329,-19.836 -4.587,-18.974C-5.529,-18.328 -6.251,-17.516 -6.744,-16.549C-7.261,-17.488 -7.951,-18.289 -8.806,-18.94C-9.972,-19.824 -11.212,-20.273 -12.495,-20.273C-13.752,-20.273 -14.981,-19.942 -16.148,-19.29C-16.836,-18.905 -17.428,-18.473 -17.921,-17.998L-17.921,-19.335C-17.921,-19.598 -18.135,-19.811 -18.398,-19.811L-19.733,-19.811C-19.996,-19.811 -20.21,-19.598 -20.21,-19.335L-20.21,-0.476C-20.21,-0.212 -19.996,0 -19.733,0L-18.398,0C-18.135,0 -17.921,-0.212 -17.921,-0.476L-17.921,-13.049C-17.921,-14.412 -17.421,-15.577 -16.392,-16.612C-15.363,-17.645 -14.191,-18.148 -12.808,-18.148C-11.429,-18.148 -10.286,-17.654 -9.314,-16.638C-8.336,-15.617 -7.861,-14.443 -7.861,-13.049L-7.861,-0.476C-7.861,-0.212 -7.647,0 -7.384,0L-6.049,0C-5.786,0 -5.574,-0.212 -5.574,-0.476L-5.574,-13.049C-5.574,-14.408 -5.055,-15.572 -3.987,-16.605C-2.914,-17.643 -1.726,-18.148 -0.355,-18.148C1.013,-18.148 2.151,-17.666 3.124,-16.675C4.099,-15.684 4.573,-14.471 4.573,-12.965L4.573,-0.476C4.573,-0.212 4.785,0 5.048,0L6.383,0C6.646,0 6.858,-0.212 6.858,-0.476L6.858,-12.965C6.858,-15.185 6.164,-16.978 4.794,-18.295C3.428,-19.608 1.815,-20.273 0,-20.273" style="fill:rgb(64,63,65);fill-rule:nonzero;"/>
            </g>
        </g>
        <g transform="matrix(4.16667,0,0,4.16667,0,0)">
            <g transform="matrix(1,0,0,1,1282.02,73.1259)">
                <path d="M0,-13.543C-2.155,-15.926 -4.775,-17.135 -7.784,-17.135C-10.785,-17.135 -13.34,-16.109 -15.382,-14.085C-17.426,-12.059 -18.462,-9.627 -18.462,-6.855C-18.462,-4.085 -17.42,-1.626 -15.365,0.453C-13.308,2.537 -10.857,3.592 -8.077,3.592L-7.699,3.592C-4.749,3.592 -2.201,2.44 -0.128,0.168C-0.047,0.081 -0.003,-0.034 -0.003,-0.153L-0.003,-2.29C-0.003,-2.499 -0.14,-2.683 -0.34,-2.744C-0.541,-2.803 -0.757,-2.73 -0.873,-2.556C-1.697,-1.338 -2.754,-0.35 -4.013,0.378C-5.263,1.101 -6.701,1.467 -8.288,1.467C-9.72,1.467 -11.24,0.88 -12.812,-0.279L-0.019,-12.885C0.162,-13.063 0.171,-13.354 0,-13.543M-14.385,-1.819C-15.567,-3.313 -16.167,-5.047 -16.167,-6.98C-16.167,-9.103 -15.368,-10.932 -13.724,-12.574C-12.103,-14.19 -10.224,-15.01 -8.141,-15.01C-6.211,-15.01 -4.453,-14.398 -2.91,-13.191L-14.385,-1.819Z" style="fill:rgb(64,63,65);fill-rule:nonzero;"/>
            </g>
        </g>
        <g transform="matrix(4.16667,0,0,4.16667,0,0)">
            <g transform="matrix(1,0,0,1,1304.07,76.6754)">
                <path d="M0,-32.628L-1.34,-32.628C-1.603,-32.628 -1.815,-32.415 -1.815,-32.152L-1.815,-16.743C-2.554,-17.7 -3.501,-18.51 -4.644,-19.162C-6.317,-20.115 -8.082,-20.599 -9.887,-20.599C-12.768,-20.599 -15.254,-19.579 -17.28,-17.567C-19.305,-15.556 -20.332,-13.11 -20.332,-10.299C-20.332,-7.489 -19.305,-5.043 -17.28,-3.031C-15.256,-1.019 -12.769,0 -9.887,0C-8.135,0 -6.406,-0.476 -4.75,-1.415C-3.584,-2.075 -2.602,-2.906 -1.815,-3.896L-1.815,-0.933C-1.815,-0.67 -1.603,-0.458 -1.34,-0.458L0,-0.458C0.263,-0.458 0.476,-0.67 0.476,-0.933L0.476,-32.152C0.476,-32.415 0.263,-32.628 0,-32.628M-4.168,-4.537C-5.786,-2.932 -7.73,-2.117 -9.948,-2.117C-12.196,-2.117 -14.065,-2.907 -15.662,-4.534C-17.263,-6.164 -18.04,-8.043 -18.04,-10.28C-18.04,-12.483 -17.234,-14.422 -15.642,-16.043C-14.052,-17.661 -12.131,-18.482 -9.928,-18.482C-7.726,-18.482 -5.789,-17.654 -4.171,-16.021C-2.553,-14.386 -1.732,-12.446 -1.732,-10.256C-1.732,-8.039 -2.529,-6.167 -4.168,-4.537" style="fill:rgb(64,63,65);fill-rule:nonzero;"/>
            </g>
        </g>
        <g transform="matrix(4.16667,0,0,4.16667,0,0)">
            <g transform="matrix(1,0,0,1,1310.26,76.2226)">
                <path d="M0,-19.779L-1.653,-19.779C-1.916,-19.779 -2.129,-19.566 -2.129,-19.303L-2.129,-0.476C-2.129,-0.213 -1.916,0 -1.653,0L0,0C0.263,0 0.476,-0.213 0.476,-0.476L0.476,-19.303C0.476,-19.566 0.263,-19.779 0,-19.779" style="fill:rgb(64,63,65);fill-rule:nonzero;"/>
            </g>
        </g>
        <g transform="matrix(4.16667,0,0,4.16667,0,0)">
            <g transform="matrix(-1,0,0,1,1309.43,53.2002)">
                <path d="M-0.002,-3.51C1.166,-3.51 1.837,-2.87 1.837,-1.755C1.837,-0.639 1.166,0 -0.002,0C-1.17,0 -1.839,-0.639 -1.839,-1.755C-1.839,-2.87 -1.17,-3.51 -0.002,-3.51" style="fill:rgb(64,63,65);fill-rule:nonzero;"/>
            </g>
        </g>
        <g transform="matrix(4.16667,0,0,4.16667,0,0)">
            <g transform="matrix(1,0,0,1,1324.53,76.7574)">
                <path d="M0,-20.726C-2.972,-20.726 -5.514,-19.7 -7.557,-17.677C-9.602,-15.652 -10.638,-13.212 -10.638,-10.426C-10.638,-7.643 -9.618,-5.183 -7.606,-3.118C-5.589,-1.049 -3.144,0 -0.335,0L0.041,0C3.052,0 5.614,-1.137 7.659,-3.38C7.738,-3.468 7.782,-3.582 7.782,-3.701L7.782,-5.879C7.782,-6.09 7.645,-6.275 7.443,-6.335C7.241,-6.396 7.026,-6.317 6.91,-6.142C6.086,-4.898 5.031,-3.907 3.776,-3.193C2.524,-2.484 1.197,-2.124 -0.168,-2.124C-2.35,-2.124 -4.278,-2.945 -5.9,-4.562C-7.521,-6.179 -8.343,-8.13 -8.343,-10.363C-8.343,-12.594 -7.521,-14.545 -5.9,-16.163C-4.255,-17.804 -2.381,-18.601 -0.168,-18.601C1.195,-18.601 2.522,-18.241 3.776,-17.531C5.031,-16.819 6.087,-15.84 6.912,-14.62C7.029,-14.448 7.247,-14.374 7.445,-14.432C7.646,-14.494 7.782,-14.678 7.782,-14.888L7.782,-17.023C7.782,-17.144 7.736,-17.26 7.654,-17.348C5.553,-19.589 2.978,-20.726 0,-20.726" style="fill:rgb(64,63,65);fill-rule:nonzero;"/>
            </g>
        </g>
        <g transform="matrix(4.16667,0,0,4.16667,0,0)">
            <g transform="matrix(1,0,0,1,1354.44,76.2134)">
                <path d="M0,-19.802L-1.34,-19.802C-1.603,-19.802 -1.815,-19.589 -1.815,-19.326L-1.815,-16.404C-2.499,-17.333 -3.403,-18.127 -4.517,-18.775C-6.216,-19.763 -8.022,-20.264 -9.886,-20.264C-12.74,-20.264 -15.221,-19.238 -17.262,-17.214C-19.3,-15.188 -20.334,-12.726 -20.334,-9.901C-20.334,-7.074 -19.3,-4.614 -17.261,-2.587C-15.223,-0.563 -12.741,0.462 -9.886,0.462C-8.019,0.462 -6.248,-0.025 -4.62,-0.987C-3.499,-1.647 -2.561,-2.482 -1.815,-3.477L-1.815,-0.474C-1.815,-0.212 -1.603,0.002 -1.34,0.002L0,0.002C0.263,0.002 0.477,-0.212 0.477,-0.474L0.477,-19.326C0.477,-19.589 0.263,-19.802 0,-19.802M-4.111,-4.095C-5.687,-2.482 -7.61,-1.662 -9.825,-1.662C-12.042,-1.662 -13.987,-2.483 -15.605,-4.099C-17.243,-5.737 -18.039,-7.621 -18.039,-9.857C-18.039,-12.098 -17.241,-13.996 -15.602,-15.662C-13.983,-17.306 -12.047,-18.139 -9.845,-18.139C-7.613,-18.139 -5.744,-17.336 -4.132,-15.685C-2.54,-14.053 -1.734,-12.1 -1.734,-9.881C-1.734,-7.661 -2.533,-5.714 -4.111,-4.095" style="fill:rgb(64,63,65);fill-rule:nonzero;"/>
            </g>
        </g>
        <g transform="matrix(4.16667,0,0,4.16667,0,0)">
            <g transform="matrix(1,0,0,1,1255.06,93.0844)">
                <path d="M0,-10.103L-0.529,-10.103C-0.608,-10.103 -0.672,-10.039 -0.672,-9.96L-0.672,-0.143C-0.672,-0.064 -0.608,0 -0.529,0L0,0C0.079,0 0.143,-0.064 0.143,-0.143L0.143,-9.96C0.143,-10.039 0.079,-10.103 0,-10.103" style="fill:rgb(64,63,65);fill-rule:nonzero;"/>
            </g>
        </g>
        <g transform="matrix(4.16667,0,0,4.16667,0,0)">
            <g transform="matrix(1,0,0,1,1259.14,93.0856)">
                <path d="M0,-6.36C-0.942,-6.36 -1.665,-6.031 -2.155,-5.38L-2.155,-6.073C-2.155,-6.152 -2.219,-6.216 -2.298,-6.216L-2.721,-6.216C-2.8,-6.216 -2.864,-6.152 -2.864,-6.073L-2.864,-0.144C-2.864,-0.064 -2.8,0 -2.721,0L-2.298,0C-2.219,0 -2.155,-0.064 -2.155,-0.144L-2.155,-3.596C-2.155,-4.165 -1.942,-4.648 -1.505,-5.073C-1.073,-5.492 -0.567,-5.705 0,-5.705C0.571,-5.705 1.046,-5.5 1.447,-5.077C1.851,-4.652 2.048,-4.167 2.048,-3.596L2.048,-0.144C2.048,-0.064 2.112,0 2.192,0L2.614,0C2.693,0 2.758,-0.064 2.758,-0.144L2.758,-3.596C2.758,-4.36 2.49,-5.019 1.963,-5.553C1.436,-6.089 0.775,-6.36 0,-6.36" style="fill:rgb(64,63,65);fill-rule:nonzero;"/>
            </g>
        </g>
        <g transform="matrix(4.16667,0,0,4.16667,0,0)">
            <g transform="matrix(1,0,0,1,1265.39,85.1768)">
                <path d="M0,7.332C-0.49,7.332 -0.894,7.173 -1.235,6.846C-1.575,6.523 -1.74,6.123 -1.74,5.626L-1.74,2.387L-0.015,2.387C0.066,2.387 0.13,2.323 0.13,2.243L0.13,1.876C0.13,1.796 0.066,1.732 -0.015,1.732L-1.74,1.732L-1.74,-0.51C-1.74,-0.59 -1.805,-0.654 -1.883,-0.654L-2.317,-0.654C-2.396,-0.654 -2.46,-0.59 -2.46,-0.51L-2.46,5.626C-2.46,6.312 -2.217,6.884 -1.736,7.324C-1.26,7.764 -0.677,7.986 0,7.986C0.079,7.986 0.143,7.924 0.143,7.843L0.143,7.475C0.143,7.396 0.079,7.332 0,7.332" style="fill:rgb(64,63,65);fill-rule:nonzero;"/>
            </g>
        </g>
        <g transform="matrix(4.16667,0,0,4.16667,0,0)">
            <g transform="matrix(1,0,0,1,1271.72,92.1131)">
                <path d="M0,-4.247C-0.678,-4.996 -1.498,-5.375 -2.443,-5.375C-3.385,-5.375 -4.187,-5.053 -4.827,-4.418C-5.468,-3.783 -5.792,-3.02 -5.792,-2.15C-5.792,-1.28 -5.466,-0.508 -4.821,0.144C-4.174,0.797 -3.407,1.128 -2.535,1.128L-2.416,1.128C-1.489,1.128 -0.69,0.766 -0.041,0.053C-0.016,0.026 -0.003,-0.008 -0.003,-0.044L-0.003,-0.714C-0.003,-0.778 -0.043,-0.833 -0.104,-0.852C-0.161,-0.869 -0.229,-0.848 -0.266,-0.796C-0.525,-0.411 -0.857,-0.1 -1.255,0.129C-1.646,0.357 -2.1,0.472 -2.601,0.472C-3.055,0.472 -3.535,0.285 -4.032,-0.083L-0.007,-4.048C0.048,-4.102 0.051,-4.19 0,-4.247M-4.518,-0.557C-4.897,-1.032 -5.084,-1.568 -5.084,-2.19C-5.084,-2.849 -4.825,-3.442 -4.314,-3.951C-3.797,-4.467 -3.22,-4.719 -2.554,-4.719C-1.944,-4.719 -1.388,-4.524 -0.901,-4.141L-4.518,-0.557Z" style="fill:rgb(64,63,65);fill-rule:nonzero;"/>
            </g>
        </g>
        <g transform="matrix(4.16667,0,0,4.16667,0,0)">
            <g transform="matrix(1,0,0,1,1273.84,92.6335)">
                <path d="M0,-5.6C-0.208,-5.482 -0.386,-5.342 -0.533,-5.184L-0.533,-5.62C-0.533,-5.7 -0.596,-5.764 -0.677,-5.764L-1.103,-5.764C-1.182,-5.764 -1.246,-5.7 -1.246,-5.62L-1.246,0.307C-1.246,0.388 -1.182,0.451 -1.103,0.451L-0.677,0.451C-0.596,0.451 -0.533,0.388 -0.533,0.307L-0.533,-3.644C-0.533,-4.073 -0.37,-4.44 -0.035,-4.766C0.301,-5.094 0.677,-5.253 1.112,-5.253C1.547,-5.253 1.936,-5.077 2.305,-4.714C2.345,-4.674 2.407,-4.663 2.461,-4.684C2.514,-4.706 2.549,-4.759 2.549,-4.816L2.549,-5.344C2.549,-5.389 2.527,-5.433 2.49,-5.46C1.681,-6.051 0.718,-6.011 0,-5.6" style="fill:rgb(64,63,65);fill-rule:nonzero;"/>
            </g>
        </g>
        <g transform="matrix(4.16667,0,0,4.16667,0,0)">
            <g transform="matrix(1,0,0,1,1279.97,93.0856)">
                <path d="M0,-6.36C-0.942,-6.36 -1.665,-6.031 -2.154,-5.38L-2.154,-6.073C-2.154,-6.152 -2.218,-6.216 -2.297,-6.216L-2.719,-6.216C-2.799,-6.216 -2.863,-6.152 -2.863,-6.073L-2.863,-0.144C-2.863,-0.064 -2.799,0 -2.719,0L-2.297,0C-2.218,0 -2.154,-0.064 -2.154,-0.144L-2.154,-3.596C-2.154,-4.165 -1.941,-4.648 -1.504,-5.073C-1.073,-5.492 -0.566,-5.705 0,-5.705C0.572,-5.705 1.047,-5.5 1.448,-5.077C1.852,-4.653 2.049,-4.168 2.049,-3.596L2.049,-0.144C2.049,-0.064 2.113,0 2.192,0L2.615,0C2.695,0 2.759,-0.064 2.759,-0.144L2.759,-3.596C2.759,-4.36 2.491,-5.018 1.965,-5.553C1.436,-6.089 0.775,-6.36 0,-6.36" style="fill:rgb(64,63,65);fill-rule:nonzero;"/>
            </g>
        </g>
        <g transform="matrix(4.16667,0,0,4.16667,0,0)">
            <g transform="matrix(1,0,0,1,1289.95,93.0837)">
                <path d="M0,-6.214L-0.421,-6.214C-0.501,-6.214 -0.565,-6.15 -0.565,-6.071L-0.565,-5.134C-0.78,-5.431 -1.067,-5.685 -1.423,-5.892C-1.956,-6.2 -2.524,-6.358 -3.107,-6.358C-4.004,-6.358 -4.782,-6.037 -5.422,-5.403C-6.061,-4.765 -6.385,-3.993 -6.385,-3.108C-6.385,-2.22 -6.061,-1.448 -5.422,-0.813C-4.783,-0.177 -4.004,0.144 -3.107,0.144C-2.524,0.144 -1.967,-0.009 -1.455,-0.31C-1.097,-0.52 -0.8,-0.787 -0.565,-1.106L-0.565,-0.144C-0.565,-0.065 -0.501,-0.001 -0.421,-0.001L0,-0.001C0.079,-0.001 0.143,-0.065 0.143,-0.144L0.143,-6.071C0.143,-6.15 0.079,-6.214 0,-6.214M-1.288,-1.279C-1.792,-0.763 -2.381,-0.512 -3.088,-0.512C-3.786,-0.512 -4.399,-0.771 -4.909,-1.28C-5.418,-1.788 -5.677,-2.399 -5.677,-3.095C-5.677,-3.79 -5.418,-4.405 -4.907,-4.924C-4.399,-5.441 -3.788,-5.703 -3.094,-5.703C-2.4,-5.703 -1.795,-5.443 -1.295,-4.93C-0.793,-4.414 -0.538,-3.8 -0.538,-3.102C-0.538,-2.401 -0.791,-1.788 -1.288,-1.279" style="fill:rgb(64,63,65);fill-rule:nonzero;"/>
            </g>
        </g>
        <g transform="matrix(4.16667,0,0,4.16667,0,0)">
            <g transform="matrix(1,0,0,1,1293.59,85.1768)">
                <path d="M0,7.332C-0.489,7.332 -0.893,7.173 -1.234,6.846C-1.574,6.523 -1.74,6.123 -1.74,5.626L-1.74,2.387L-0.014,2.387C0.067,2.387 0.13,2.323 0.13,2.243L0.13,1.876C0.13,1.796 0.067,1.732 -0.014,1.732L-1.74,1.732L-1.74,-0.51C-1.74,-0.59 -1.804,-0.654 -1.883,-0.654L-2.317,-0.654C-2.396,-0.654 -2.46,-0.59 -2.46,-0.51L-2.46,5.626C-2.46,6.312 -2.217,6.884 -1.736,7.324C-1.26,7.764 -0.676,7.986 0,7.986C0.079,7.986 0.143,7.924 0.143,7.843L0.143,7.475C0.143,7.396 0.079,7.332 0,7.332" style="fill:rgb(64,63,65);fill-rule:nonzero;"/>
            </g>
        </g>
        <g transform="matrix(4.16667,0,0,4.16667,0,0)">
            <g transform="matrix(-1,0,0,1,1294.96,85.752)">
                <path d="M0,-0.996C0.514,-0.996 0.569,-0.648 0.569,-0.497C0.569,-0.347 0.514,0 0,0C-0.514,0 -0.569,-0.347 -0.569,-0.497C-0.569,-0.648 -0.514,-0.996 0,-0.996" style="fill:rgb(64,63,65);fill-rule:nonzero;"/>
            </g>
        </g>
        <g transform="matrix(4.16667,0,0,4.16667,0,0)">
            <g transform="matrix(1,0,0,1,1295.19,93.085)">
                <path d="M0,-6.178L-0.47,-6.178C-0.55,-6.178 -0.614,-6.114 -0.614,-6.035L-0.614,-0.143C-0.614,-0.064 -0.55,0 -0.47,0L0,0C0.079,0 0.143,-0.064 0.143,-0.143L0.143,-6.035C0.143,-6.114 0.079,-6.178 0,-6.178" style="fill:rgb(64,63,65);fill-rule:nonzero;"/>
            </g>
        </g>
        <g transform="matrix(4.16667,0,0,4.16667,0,0)">
            <g transform="matrix(1,0,0,1,1299.65,93.2276)">
                <path d="M0,-6.502C-0.9,-6.502 -1.679,-6.18 -2.32,-5.546C-2.958,-4.91 -3.283,-4.147 -3.283,-3.278C-3.283,-2.408 -2.964,-1.637 -2.334,-0.984C-1.704,-0.331 -0.938,0 -0.059,0L0.059,0C0.949,0 1.716,-0.329 2.336,-0.978C2.957,-1.627 3.271,-2.398 3.271,-3.271C3.271,-4.145 2.949,-4.91 2.314,-5.546C1.679,-6.18 0.901,-6.502 0,-6.502M1.813,-1.423C1.317,-0.914 0.711,-0.656 0.015,-0.656C-0.684,-0.656 -1.297,-0.915 -1.807,-1.424C-2.316,-1.932 -2.574,-2.543 -2.574,-3.239C-2.574,-3.932 -2.315,-4.548 -1.806,-5.067C-1.297,-5.585 -0.686,-5.847 0.008,-5.847C0.702,-5.847 1.308,-5.587 1.807,-5.074C2.308,-4.557 2.564,-3.943 2.564,-3.246C2.564,-2.544 2.311,-1.931 1.813,-1.423" style="fill:rgb(64,63,65);fill-rule:nonzero;"/>
            </g>
        </g>
        <g transform="matrix(4.16667,0,0,4.16667,0,0)">
            <g transform="matrix(1,0,0,1,1306.63,93.0856)">
                <path d="M0,-6.36C-0.942,-6.36 -1.665,-6.031 -2.154,-5.38L-2.154,-6.073C-2.154,-6.152 -2.218,-6.216 -2.297,-6.216L-2.72,-6.216C-2.799,-6.216 -2.863,-6.152 -2.863,-6.073L-2.863,-0.144C-2.863,-0.064 -2.799,0 -2.72,0L-2.297,0C-2.218,0 -2.154,-0.064 -2.154,-0.144L-2.154,-3.596C-2.154,-4.165 -1.942,-4.648 -1.505,-5.073C-1.066,-5.498 -0.573,-5.705 0,-5.705C0.572,-5.705 1.046,-5.5 1.448,-5.077C1.852,-4.652 2.049,-4.167 2.049,-3.596L2.049,-0.144C2.049,-0.064 2.113,0 2.192,0L2.615,0C2.694,0 2.757,-0.064 2.757,-0.144L2.757,-3.596C2.757,-4.36 2.491,-5.019 1.964,-5.553C1.436,-6.089 0.776,-6.36 0,-6.36" style="fill:rgb(64,63,65);fill-rule:nonzero;"/>
            </g>
        </g>
        <g transform="matrix(4.16667,0,0,4.16667,0,0)">
            <g transform="matrix(1,0,0,1,1316.61,93.0837)">
                <path d="M0,-6.214L-0.42,-6.214C-0.5,-6.214 -0.564,-6.15 -0.564,-6.071L-0.564,-5.134C-0.78,-5.431 -1.066,-5.684 -1.422,-5.892C-1.956,-6.2 -2.523,-6.358 -3.107,-6.358C-4.003,-6.358 -4.781,-6.037 -5.421,-5.403C-6.06,-4.765 -6.385,-3.993 -6.385,-3.108C-6.385,-2.22 -6.06,-1.448 -5.421,-0.813C-4.781,-0.177 -4.003,0.144 -3.107,0.144C-2.523,0.144 -1.966,-0.009 -1.454,-0.31C-1.097,-0.52 -0.799,-0.787 -0.564,-1.106L-0.564,-0.144C-0.564,-0.065 -0.5,-0.001 -0.42,-0.001L0,-0.001C0.079,-0.001 0.143,-0.065 0.143,-0.144L0.143,-6.071C0.143,-6.15 0.079,-6.214 0,-6.214M-1.288,-1.279C-1.784,-0.77 -2.391,-0.512 -3.088,-0.512C-3.786,-0.512 -4.399,-0.771 -4.909,-1.28C-5.417,-1.788 -5.676,-2.399 -5.676,-3.095C-5.676,-3.789 -5.417,-4.405 -4.907,-4.924C-4.399,-5.441 -3.788,-5.703 -3.094,-5.703C-2.4,-5.703 -1.794,-5.443 -1.294,-4.929C-0.793,-4.414 -0.537,-3.8 -0.537,-3.102C-0.537,-2.401 -0.791,-1.787 -1.288,-1.279" style="fill:rgb(64,63,65);fill-rule:nonzero;"/>
            </g>
        </g>
        <g transform="matrix(4.16667,0,0,4.16667,0,0)">
            <g transform="matrix(1,0,0,1,1320.38,83.6329)">
                <path d="M0,8.916C-0.489,8.916 -0.893,8.757 -1.234,8.432C-1.574,8.108 -1.74,7.711 -1.74,7.214L-1.74,-0.509C-1.74,-0.588 -1.804,-0.652 -1.883,-0.652L-2.317,-0.652C-2.396,-0.652 -2.46,-0.588 -2.46,-0.509L-2.46,7.214C-2.46,7.899 -2.217,8.47 -1.736,8.91C-1.26,9.347 -0.676,9.568 0,9.568C0.079,9.568 0.143,9.506 0.143,9.425L0.143,9.059C0.143,8.98 0.079,8.916 0,8.916" style="fill:rgb(64,63,65);fill-rule:nonzero;"/>
            </g>
        </g>
        <g transform="matrix(4.16667,0,0,4.16667,0,0)">
            <g transform="matrix(1,0,0,1,1163.64,73.4954)">
                <path d="M0,-25.539C-0.498,-17.282 -2.741,-10.745 -6.716,-6.006C-11.6,-0.181 -17.876,1.192 -20.426,1.515C-20.693,-1.602 -20.807,-10.297 -14.889,-17.184C-11.401,-21.242 -6.42,-24.033 0,-25.539M7.985,17.001L-27.554,17.001C-30.473,17.001 -32.847,14.624 -32.847,11.706L-32.847,-37.247C-32.847,-40.165 -30.473,-42.539 -27.554,-42.539L-1.052,-42.539C-0.232,-37.351 0.164,-32.569 0.099,-28.235C-7.204,-26.646 -12.884,-23.52 -16.867,-18.885C-24.97,-9.455 -22.948,2.635 -22.858,3.145L-22.668,4.227L-21.568,4.223C-21.172,4.221 -11.805,4.083 -4.755,-4.283C-0.283,-9.591 2.186,-16.885 2.636,-26.071C5.858,-26.623 9.417,-26.872 13.278,-26.838L13.278,11.706C13.278,14.624 10.904,17.001 7.985,17.001M14.583,-29.443C14.582,-29.443 14.581,-29.442 14.58,-29.442C14.579,-29.442 14.578,-29.443 14.578,-29.443C10.272,-29.547 6.312,-29.305 2.709,-28.727C2.743,-33.367 2.298,-38.452 1.374,-43.972C1.36,-44.054 1.316,-44.121 1.288,-44.197C1.262,-44.285 1.235,-44.368 1.193,-44.447C1.189,-44.453 1.185,-44.459 1.18,-44.465C0.958,-44.866 0.546,-45.148 0.054,-45.148L-27.554,-45.148C-31.911,-45.148 -35.456,-41.604 -35.456,-37.247L-35.456,11.706C-35.456,16.064 -31.911,19.609 -27.554,19.609L7.985,19.609C12.343,19.609 15.888,16.064 15.888,11.706L15.888,-28.138C15.888,-28.859 15.304,-29.443 14.583,-29.443" style="fill:rgb(183,32,37);fill-rule:nonzero;"/>
            </g>
        </g>
        <g transform="matrix(4.16667,0,0,4.16667,0,0)">
            <g transform="matrix(1,0,0,1,1338.86,93.0935)">
                <path d="M0,-10.106L-0.432,-10.106C-0.539,-10.106 -0.626,-10.02 -0.626,-9.913L-0.626,-4.469L-6.951,-4.469L-6.951,-9.913C-6.951,-10.02 -7.038,-10.106 -7.146,-10.106L-7.578,-10.106C-7.686,-10.106 -7.772,-10.02 -7.772,-9.913L-7.772,-0.193C-7.772,-0.086 -7.686,0 -7.578,0L-7.146,0C-7.038,0 -6.951,-0.086 -6.951,-0.193L-6.951,-3.706L-0.626,-3.706L-0.626,-0.193C-0.626,-0.086 -0.539,0 -0.432,0L0,0C0.108,0 0.195,-0.086 0.195,-0.193L0.195,-9.913C0.195,-10.02 0.108,-10.106 0,-10.106" style="fill:rgb(64,63,65);fill-rule:nonzero;"/>
            </g>
        </g>
        <g transform="matrix(4.16667,0,0,4.16667,0,0)">
            <g transform="matrix(-1,0,0,1,1341.04,85.8498)">
                <path d="M0.001,-1.087C0.361,-1.087 0.574,-0.884 0.574,-0.543C0.574,-0.202 0.361,0 0.001,0C-0.36,0 -0.573,-0.202 -0.573,-0.543C-0.573,-0.884 -0.36,-1.087 0.001,-1.087" style="fill:rgb(64,63,65);fill-rule:nonzero;"/>
            </g>
        </g>
        <g transform="matrix(4.16667,0,0,4.16667,0,0)">
            <g transform="matrix(1,0,0,1,1341.21,93.0931)">
                <path d="M0,-6.205L-0.418,-6.205C-0.526,-6.205 -0.613,-6.119 -0.613,-6.012L-0.613,-0.193C-0.613,-0.086 -0.526,0 -0.418,0L0,0C0.108,0 0.195,-0.086 0.195,-0.193L0.195,-6.012C0.195,-6.119 0.108,-6.205 0,-6.205" style="fill:rgb(64,63,65);fill-rule:nonzero;"/>
            </g>
        </g>
        <g transform="matrix(4.16667,0,0,4.16667,0,0)">
            <g transform="matrix(1,0,0,1,1345.18,83.7375)">
                <path d="M0,8.723C-0.456,8.723 -0.832,8.571 -1.15,8.26C-1.467,7.95 -1.621,7.567 -1.621,7.089L-1.621,-0.556C-1.621,-0.663 -1.708,-0.75 -1.816,-0.75L-2.234,-0.75C-2.342,-0.75 -2.43,-0.663 -2.43,-0.556L-2.43,7.089C-2.43,7.781 -2.189,8.358 -1.715,8.804C-1.244,9.248 -0.667,9.473 0,9.473C0.107,9.473 0.194,9.386 0.194,9.28L0.194,8.916C0.194,8.809 0.107,8.723 0,8.723" style="fill:rgb(64,63,65);fill-rule:nonzero;"/>
            </g>
        </g>
        <g transform="matrix(4.16667,0,0,4.16667,0,0)">
            <g transform="matrix(1,0,0,1,1348.48,87.4951)">
                <path d="M0,2.62L-1.635,2.62L-1.635,-0.595C-1.635,-1.073 -1.48,-1.455 -1.163,-1.767C-0.845,-2.077 -0.469,-2.228 -0.014,-2.228C0.095,-2.228 0.182,-2.315 0.182,-2.422L0.182,-2.785C0.182,-2.891 0.095,-2.978 -0.014,-2.978C-0.681,-2.978 -1.258,-2.754 -1.728,-2.31C-2.202,-1.863 -2.443,-1.286 -2.443,-0.595L-2.443,5.405C-2.443,5.512 -2.356,5.598 -2.247,5.598L-1.829,5.598C-1.722,5.598 -1.635,5.512 -1.635,5.405L-1.635,3.37L0,3.37C0.107,3.37 0.194,3.283 0.194,3.176L0.194,2.813C0.194,2.706 0.107,2.62 0,2.62" style="fill:rgb(64,63,65);fill-rule:nonzero;"/>
            </g>
        </g>
        <g transform="matrix(4.16667,0,0,4.16667,0,0)">
            <g transform="matrix(1,0,0,1,1354.76,88.7961)">
                <path d="M0,2.403C-0.081,2.378 -0.17,2.409 -0.219,2.479C-0.471,2.851 -0.795,3.15 -1.18,3.373C-1.562,3.592 -2.001,3.703 -2.487,3.703C-2.91,3.703 -3.358,3.535 -3.823,3.203L0.119,-0.656C0.194,-0.729 0.197,-0.847 0.127,-0.924C-0.553,-1.671 -1.38,-2.05 -2.331,-2.05C-3.277,-2.05 -4.084,-1.729 -4.728,-1.093C-5.374,-0.458 -5.701,0.305 -5.701,1.175C-5.701,2.045 -5.371,2.817 -4.723,3.469C-4.074,4.122 -3.3,4.453 -2.422,4.453L-2.304,4.453C-1.372,4.453 -0.567,4.092 0.087,3.379C0.12,3.343 0.138,3.297 0.138,3.249L0.138,2.588C0.138,2.503 0.082,2.428 0,2.403M-4.38,2.664C-4.724,2.217 -4.892,1.715 -4.892,1.136C-4.892,0.493 -4.648,-0.062 -4.146,-0.56C-3.643,-1.059 -3.087,-1.3 -2.441,-1.3C-1.86,-1.3 -1.349,-1.13 -0.885,-0.78L-4.38,2.664Z" style="fill:rgb(64,63,65);fill-rule:nonzero;"/>
            </g>
        </g>
        <g transform="matrix(4.16667,0,0,4.16667,0,0)">
            <g transform="matrix(1,0,0,1,1326.27,92.1222)">
                <path d="M0,-4.248C-0.677,-4.997 -1.498,-5.376 -2.442,-5.376C-3.384,-5.376 -4.187,-5.054 -4.827,-4.419C-5.468,-3.784 -5.792,-3.02 -5.792,-2.15C-5.792,-1.28 -5.466,-0.509 -4.82,0.144C-4.174,0.796 -3.407,1.128 -2.535,1.128L-2.416,1.128C-1.489,1.128 -0.69,0.765 -0.041,0.052C-0.016,0.026 -0.003,-0.009 -0.003,-0.045L-0.003,-0.715C-0.003,-0.779 -0.043,-0.834 -0.104,-0.853C-0.161,-0.87 -0.229,-0.849 -0.265,-0.797C-0.525,-0.411 -0.857,-0.101 -1.254,0.128C-1.646,0.356 -2.1,0.471 -2.601,0.471C-3.055,0.471 -3.535,0.285 -4.032,-0.084L-0.006,-4.049C0.048,-4.103 0.052,-4.191 0,-4.248M-4.517,-0.558C-4.897,-1.033 -5.084,-1.569 -5.084,-2.191C-5.084,-2.85 -4.825,-3.443 -4.314,-3.952C-3.797,-4.467 -3.22,-4.72 -2.554,-4.72C-1.944,-4.72 -1.388,-4.524 -0.901,-4.142L-4.517,-0.558Z" style="fill:rgb(64,63,65);fill-rule:nonzero;"/>
            </g>
        </g>
    </g>
</svg>
